# xmcd CD database file
#
# Track frame offsets:
#	150
#	28585
#	62036
#	82654
#	111586
#	140640
#	171945
#	189240
#	216038
#	244757
#
# Disc length: 3617 seconds
#
# Revision: 0
# Processed by: cddbd v1.4PL0 Copyright (c) Steve Scherf et al.
# Submitted via: CDex 1.50beta9
#
DISCID=870e1f0a
DTITLE=Llewellyn - Music for Reiki Healing
DYEAR=2001
DGENRE=New Age
TTITLE0=Forbidden Lover
TTITLE1=Weaver of Dreams
TTITLE2=Place of Enchantment
TTITLE3=A Place to Dream
TTITLE4=A New Beginning
TTITLE5=Seeking Solace
TTITLE6=The Healing Pool (Reprise)
TTITLE7=Summoning of the Spirit
TTITLE8=Guinevere
TTITLE9=The Healing Mist
EXTD=YEAR: 2001
EXTT0=
EXTT1=
EXTT2=
EXTT3=
EXTT4=
EXTT5=
EXTT6=
EXTT7=
EXTT8=
EXTT9=
PLAYORDER=
